  0
SECTION
  2
HEADER
  9
$ACADVER
  1
AC1015
  9
$ACADMAINTVER
 70
     6
  9
$DWGCODEPAGE
  3
ANSI_1251
  9
$INSBASE
 10
0.0
 20
0.0
 30
0.0
  9
$EXTMIN
 10
-60.5
 20
-14.4984944243
 30
0.0
  9
$EXTMAX
 10
60.5
 20
14.4984944243
 30
0.0
  9
$LIMMIN
 10
0.0
 20
0.0
  9
$LIMMAX
 10
420.0
 20
297.0
  9
$ORTHOMODE
 70
     0
  9
$REGENMODE
 70
     1
  9
$FILLMODE
 70
     1
  9
$QTEXTMODE
 70
     0
  9
$MIRRTEXT
 70
     1
  9
$LTSCALE
 40
1.0
  9
$ATTMODE
 70
     1
  9
$TEXTSIZE
 40
4.0
  9
$TRACEWID
 40
1.0
  9
$TEXTSTYLE
  7
Standard
  9
$CLAYER
  8
0
  9
$CELTYPE
  6
ByLayer
  9
$CECOLOR
 62
   256
  9
$CELTSCALE
 40
1.0
  9
$DISPSILH
 70
     0
  9
$DIMSCALE
 40
1.0
  9
$DIMASZ
 40
6.0
  9
$DIMEXO
 40
1.0
  9
$DIMDLI
 40
3.75
  9
$DIMRND
 40
0.0
  9
$DIMDLE
 40
0.0
  9
$DIMEXE
 40
1.0
  9
$DIMTP
 40
0.0
  9
$DIMTM
 40
0.0
  9
$DIMTXT
 40
4.0
  9
$DIMCEN
 40
2.5
  9
$DIMTSZ
 40
0.0
  9
$DIMTOL
 70
     0
  9
$DIMLIM
 70
     0
  9
$DIMTIH
 70
     1
  9
$DIMTOH
 70
     1
  9
$DIMSE1
 70
     0
  9
$DIMSE2
 70
     0
  9
$DIMTAD
 70
     1
  9
$DIMZIN
 70
     0
  9
$DIMBLK
  1

  9
$DIMASO
 70
     1
  9
$DIMSHO
 70
     1
  9
$DIMPOST
  1

  9
$DIMAPOST
  1

  9
$DIMALT
 70
     0
  9
$DIMALTD
 70
     3
  9
$DIMALTF
 40
0.0393700787
  9
$DIMLFAC
 40
1.0
  9
$DIMTOFL
 70
     1
  9
$DIMTVP
 40
0.0
  9
$DIMTIX
 70
     0
  9
$DIMSOXD
 70
     0
  9
$DIMSAH
 70
     0
  9
$DIMBLK1
  1

  9
$DIMBLK2
  1

  9
$DIMSTYLE
  2
ISO-25
  9
$DIMCLRD
 70
     0
  9
$DIMCLRE
 70
     0
  9
$DIMCLRT
 70
     0
  9
$DIMTFAC
 40
1.0
  9
$DIMGAP
 40
3.0
  9
$DIMJUST
 70
     0
  9
$DIMSD1
 70
     0
  9
$DIMSD2
 70
     0
  9
$DIMTOLJ
 70
     0
  9
$DIMTZIN
 70
     0
  9
$DIMALTZ
 70
     0
  9
$DIMALTTZ
 70
     0
  9
$DIMUPT
 70
     0
  9
$DIMDEC
 70
     2
  9
$DIMTDEC
 70
     4
  9
$DIMALTU
 70
     2
  9
$DIMALTTD
 70
     3
  9
$DIMTXSTY
  7
Standard
  9
$DIMAUNIT
 70
     0
  9
$DIMADEC
 70
     2
  9
$DIMALTRND
 40
0.0
  9
$DIMAZIN
 70
     0
  9
$DIMDSEP
 70
    44
  9
$DIMATFIT
 70
     3
  9
$DIMFRAC
 70
     0
  9
$DIMLDRBLK
  1

  9
$DIMLUNIT
 70
     2
  9
$DIMLWD
 70
    -2
  9
$DIMLWE
 70
    -2
  9
$DIMTMOVE
 70
     0
  9
$LUNITS
 70
     2
  9
$LUPREC
 70
     2
  9
$SKETCHINC
 40
1.0
  9
$FILLETRAD
 40
10.0
  9
$AUNITS
 70
     0
  9
$AUPREC
 70
     2
  9
$MENU
  1
.
  9
$ELEVATION
 40
0.0
  9
$PELEVATION
 40
0.0
  9
$THICKNESS
 40
0.0
  9
$LIMCHECK
 70
     0
  9
$CHAMFERA
 40
0.0
  9
$CHAMFERB
 40
0.0
  9
$CHAMFERC
 40
0.0
  9
$CHAMFERD
 40
0.0
  9
$SKPOLY
 70
     0
  9
$TDCREATE
 40
2458593.650087731
  9
$TDUCREATE
 40
2458593.525087731
  9
$TDUPDATE
 40
2458593.650115046
  9
$TDUUPDATE
 40
2458593.525115046
  9
$TDINDWG
 40
0.0000000116
  9
$TDUSRTIMER
 40
0.0000000116
  9
$USRTIMER
 70
     1
  9
$ANGBASE
 50
0.0
  9
$ANGDIR
 70
     0
  9
$PDMODE
 70
     0
  9
$PDSIZE
 40
-1.0
  9
$PLINEWID
 40
0.0
  9
$SPLFRAME
 70
     0
  9
$SPLINETYPE
 70
     6
  9
$SPLINESEGS
 70
     8
  9
$HANDSEED
  5
A7
  9
$SURFTAB1
 70
     6
  9
$SURFTAB2
 70
     6
  9
$SURFTYPE
 70
     6
  9
$SURFU
 70
     6
  9
$SURFV
 70
     6
  9
$UCSBASE
  2

  9
$UCSNAME
  2

  9
$UCSORG
 10
0.0
 20
0.0
 30
0.0
  9
$UCSXDIR
 10
1.0
 20
0.0
 30
0.0
  9
$UCSYDIR
 10
0.0
 20
1.0
 30
0.0
  9
$UCSORTHOREF
  2

  9
$UCSORTHOVIEW
 70
     0
  9
$UCSORGTOP
 10
0.0
 20
0.0
 30
0.0
  9
$UCSORGBOTTOM
 10
0.0
 20
0.0
 30
0.0
  9
$UCSORGLEFT
 10
0.0
 20
0.0
 30
0.0
  9
$UCSORGRIGHT
 10
0.0
 20
0.0
 30
0.0
  9
$UCSORGFRONT
 10
0.0
 20
0.0
 30
0.0
  9
$UCSORGBACK
 10
0.0
 20
0.0
 30
0.0
  9
$PUCSBASE
  2

  9
$PUCSNAME
  2

  9
$PUCSORG
 10
0.0
 20
0.0
 30
0.0
  9
$PUCSXDIR
 10
1.0
 20
0.0
 30
0.0
  9
$PUCSYDIR
 10
0.0
 20
1.0
 30
0.0
  9
$PUCSORTHOREF
  2

  9
$PUCSORTHOVIEW
 70
     0
  9
$PUCSORGTOP
 10
0.0
 20
0.0
 30
0.0
  9
$PUCSORGBOTTOM
 10
0.0
 20
0.0
 30
0.0
  9
$PUCSORGLEFT
 10
0.0
 20
0.0
 30
0.0
  9
$PUCSORGRIGHT
 10
0.0
 20
0.0
 30
0.0
  9
$PUCSORGFRONT
 10
0.0
 20
0.0
 30
0.0
  9
$PUCSORGBACK
 10
0.0
 20
0.0
 30
0.0
  9
$USERI1
 70
     0
  9
$USERI2
 70
     0
  9
$USERI3
 70
     0
  9
$USERI4
 70
     0
  9
$USERI5
 70
     0
  9
$USERR1
 40
0.0
  9
$USERR2
 40
0.0
  9
$USERR3
 40
0.0
  9
$USERR4
 40
0.0
  9
$USERR5
 40
0.0
  9
$WORLDVIEW
 70
     1
  9
$SHADEDGE
 70
     3
  9
$SHADEDIF
 70
    70
  9
$TILEMODE
 70
     1
  9
$MAXACTVP
 70
    64
  9
$PINSBASE
 10
0.0
 20
0.0
 30
0.0
  9
$PLIMCHECK
 70
     0
  9
$PEXTMIN
 10
1.0000000000E+20
 20
1.0000000000E+20
 30
1.0000000000E+20
  9
$PEXTMAX
 10
-1.0000000000E+20
 20
-1.0000000000E+20
 30
-1.0000000000E+20
  9
$PLIMMIN
 10
0.0
 20
0.0
  9
$PLIMMAX
 10
420.0
 20
297.0
  9
$UNITMODE
 70
     0
  9
$VISRETAIN
 70
     1
  9
$PLINEGEN
 70
     0
  9
$PSLTSCALE
 70
     1
  9
$TREEDEPTH
 70
  3020
  9
$CMLSTYLE
  2
Standard
  9
$CMLJUST
 70
     0
  9
$CMLSCALE
 40
20.0
  9
$PROXYGRAPHICS
 70
     1
  9
$MEASUREMENT
 70
     1
  9
$CELWEIGHT
370
    -1
  9
$ENDCAPS
280
     0
  9
$JOINSTYLE
280
     0
  9
$LWDISPLAY
290
     1
  9
$INSUNITS
 70
     4
  9
$HYPERLINKBASE
  1

  9
$STYLESHEET
  1

  9
$XEDIT
290
     1
  9
$CEPSNTYPE
380
     0
  9
$PSTYLEMODE
290
     1
  9
$FINGERPRINTGUID
  2
{3C590476-FD5C-4CC1-A1B7-D4AAA8997160}
  9
$VERSIONGUID
  2
{FAEB1C32-E019-11D5-929B-00C0DF256EC4}
  9
$EXTNAMES
290
     1
  9
$PSVPSCALE
 40
0.0
  9
$OLESTARTUP
290
     0
  0
ENDSEC
  0
SECTION
  2
CLASSES
  0
CLASS
  1
ACDBDICTIONARYWDFLT
  2
AcDbDictionaryWithDefault
  3
ObjectDBX Classes
 90
        0
280
     0
281
     0
  0
CLASS
  1
VISUALSTYLE
  2
AcDbVisualStyle
  3
ObjectDBX Classes
 90
     4095
280
     0
281
     0
  0
CLASS
  1
MATERIAL
  2
AcDbMaterial
  3
ObjectDBX Classes
 90
     1153
280
     0
281
     0
  0
CLASS
  1
SCALE
  2
AcDbScale
  3
ObjectDBX Classes
 90
     1153
280
     0
281
     0
  0
CLASS
  1
TABLESTYLE
  2
AcDbTableStyle
  3
ObjectDBX Classes
 90
     4095
280
     0
281
     0
  0
CLASS
  1
MLEADERSTYLE
  2
AcDbMLeaderStyle
  3
ACDB_MLEADERSTYLE_CLASS
 90
     4095
280
     0
281
     0
  0
CLASS
  1
SUN
  2
AcDbSun
  3
SCENEOE
 90
     1153
280
     0
281
     0
  0
CLASS
  1
ACDBPLACEHOLDER
  2
AcDbPlaceHolder
  3
ObjectDBX Classes
 90
        0
280
     0
281
     0
  0
CLASS
  1
LAYOUT
  2
AcDbLayout
  3
ObjectDBX Classes
 90
        0
280
     0
281
     0
  0
ENDSEC
  0
SECTION
  2
TABLES
  0
TABLE
  2
VPORT
  5
8
330
0
100
AcDbSymbolTable
 70
     1
  0
VPORT
  5
29
330
8
100
AcDbSymbolTableRecord
100
AcDbViewportTableRecord
  2
*Active
 70
     0
 10
0.0
 20
0.0
 11
1.0
 21
1.0
 12
0.0
 22
0.0
 13
0.0
 23
0.0
 14
10.0
 24
10.0
 15
10.0
 25
10.0
 16
0.0
 26
0.0
 36
1.0
 17
0.0
 27
0.0
 37
0.0
 40
29.5769286257
 41
4.1728470715
 42
50.0
 43
0.0
 44
0.0
 50
0.0
 51
0.0
 71
     0
 72
   100
 73
     1
 74
     3
 75
     0
 76
     0
 77
     0
 78
     0
281
     0
 65
     1
110
0.0
120
0.0
130
0.0
111
1.0
121
0.0
131
0.0
112
0.0
122
1.0
132
0.0
 79
     0
146
0.0
  0
ENDTAB
  0
TABLE
  2
LTYPE
  5
5
330
0
100
AcDbSymbolTable
 70
     6
  0
LTYPE
  5
14
330
5
100
AcDbSymbolTableRecord
100
AcDbLinetypeTableRecord
  2
ByBlock
 70
     0
  3

 72
    65
 73
     0
 40
0.0
  0
LTYPE
  5
15
330
5
100
AcDbSymbolTableRecord
100
AcDbLinetypeTableRecord
  2
ByLayer
 70
     0
  3

 72
    65
 73
     0
 40
0.0
  0
LTYPE
  5
16
330
5
100
AcDbSymbolTableRecord
100
AcDbLinetypeTableRecord
  2
Continuous
 70
     0
  3
Solid line
 72
    65
 73
     0
 40
0.0
  0
LTYPE
  5
6E
330
5
100
AcDbSymbolTableRecord
100
AcDbLinetypeTableRecord
  2
HIDDEN
 70
     0
  3
Hidden __ __ __ __ __ __ __ __ __ __ __ __ __ __
 72
    65
 73
     2
 40
1.905
 49
1.27
 74
     0
 49
-0.635
 74
     0
  0
LTYPE
  5
6F
330
5
100
AcDbSymbolTableRecord
100
AcDbLinetypeTableRecord
  2
PHANTOM
 70
     0
  3
Phantom ______  __  __  ______  __  __  ______
 72
    65
 73
     6
 40
12.7
 49
6.35
 74
     0
 49
-1.27
 74
     0
 49
1.27
 74
     0
 49
-1.27
 74
     0
 49
1.27
 74
     0
 49
-1.27
 74
     0
  0
LTYPE
  5
70
330
5
100
AcDbSymbolTableRecord
100
AcDbLinetypeTableRecord
  2
CENTER
 70
     0
  3
Center ____ _ ____ _ ____ _ ____ _ ____ _ ____
 72
    65
 73
     4
 40
10.16
 49
6.35
 74
     0
 49
-1.27
 74
     0
 49
1.27
 74
     0
 49
-1.27
 74
     0
  0
LTYPE
  5
71
330
5
100
AcDbSymbolTableRecord
100
AcDbLinetypeTableRecord
  2
CENTERX2
 70
     0
  3
Center (2x) ________  __  ________  __  _____
 72
    65
 73
     4
 40
20.32
 49
12.7
 74
     0
 49
-2.54
 74
     0
 49
2.54
 74
     0
 49
-2.54
 74
     0
  0
LTYPE
  5
72
330
5
100
AcDbSymbolTableRecord
100
AcDbLinetypeTableRecord
  2
DOT2
 70
     0
  3
Dot (.5x) ........................................
 72
    65
 73
     2
 40
0.635
 49
0.0
 74
     0
 49
-0.635
 74
     0
  0
ENDTAB
  0
TABLE
  2
LAYER
  5
2
330
0
100
AcDbSymbolTable
 70
     1
  0
LAYER
  5
10
330
2
100
AcDbSymbolTableRecord
100
AcDbLayerTableRecord
  2
0
 70
     0
 62
     7
  6
Continuous
370
    -3
390
F
  0
ENDTAB
  0
TABLE
  2
STYLE
  5
3
330
0
100
AcDbSymbolTable
 70
     1
  0
STYLE
  5
11
330
3
100
AcDbSymbolTableRecord
100
AcDbTextStyleTableRecord
  2
Standard
 70
     0
 40
0.0
 41
1.0
 50
0.0
 71
     0
 42
4.0
  3
txt
  4

  0
ENDTAB
  0
TABLE
  2
VIEW
  5
6
330
0
100
AcDbSymbolTable
 70
     0
  0
ENDTAB
  0
TABLE
  2
UCS
  5
7
330
0
100
AcDbSymbolTable
 70
     0
  0
ENDTAB
  0
TABLE
  2
APPID
  5
9
330
0
100
AcDbSymbolTable
 70
     1
  0
APPID
  5
12
330
9
100
AcDbSymbolTableRecord
100
AcDbRegAppTableRecord
  2
ACAD
 70
     0
  0
ENDTAB
  0
TABLE
  2
DIMSTYLE
  5
A
330
0
100
AcDbSymbolTable
 70
     1
100
AcDbDimStyleTable
  0
DIMSTYLE
105
27
330
A
100
AcDbSymbolTableRecord
100
AcDbDimStyleTableRecord
  2
ISO-25
 70
     0
 41
2.5
 42
0.625
 43
3.75
 44
1.25
 73
     0
 74
     0
 77
     1
 78
     8
140
2.5
141
2.5
143
0.0393700787
147
0.625
171
     3
172
     1
178
     0
271
     2
272
     2
274
     3
278
    44
283
     0
284
     8
340
11
  0
ENDTAB
  0
TABLE
  2
BLOCK_RECORD
  5
1
330
0
100
AcDbSymbolTable
 70
     1
  0
BLOCK_RECORD
  5
1F
330
1
100
AcDbSymbolTableRecord
100
AcDbBlockTableRecord
  2
*Model_Space
340
22
  0
BLOCK_RECORD
  5
1B
330
1
100
AcDbSymbolTableRecord
100
AcDbBlockTableRecord
  2
*Paper_Space
340
1E
  0
BLOCK_RECORD
  5
23
330
1
100
AcDbSymbolTableRecord
100
AcDbBlockTableRecord
  2
*Paper_Space0
340
26
  0
ENDTAB
  0
ENDSEC
  0
SECTION
  2
BLOCKS
  0
BLOCK
  5
20
330
1F
100
AcDbEntity
  8
0
100
AcDbBlockBegin
  2
*Model_Space
 70
     0
 10
0.0
 20
0.0
 30
0.0
  3
*Model_Space
  1

  0
ENDBLK
  5
21
330
1F
100
AcDbEntity
  8
0
100
AcDbBlockEnd
  0
BLOCK
  5
1C
330
1B
100
AcDbEntity
 67
     1
  8
0
100
AcDbBlockBegin
  2
*Paper_Space
 70
     0
 10
0.0
 20
0.0
 30
0.0
  3
*Paper_Space
  1

  0
ENDBLK
  5
1D
330
1B
100
AcDbEntity
 67
     1
  8
0
100
AcDbBlockEnd
  0
BLOCK
  5
24
330
23
100
AcDbEntity
  8
0
100
AcDbBlockBegin
  2
*Paper_Space0
 70
     0
 10
0.0
 20
0.0
 30
0.0
  3
*Paper_Space0
  1

  0
ENDBLK
  5
25
330
23
100
AcDbEntity
  8
0
100
AcDbBlockEnd
  0
ENDSEC
  0
SECTION
  2
ENTITIES
  0
LWPOLYLINE
  5
73
330
1F
100
AcDbEntity
  8
0
  6
Continuous
 62
     7
100
AcDbPolyline
 90
       35
 70
   128
 43
0.0
 10
23.3719646931
 20
-1.4130417889
 10
23.2612439357
 20
-1.4238211099
 10
23.1416914666
 20
-1.4326405543
 10
23.0289985653
 20
-1.4365603074
 10
22.9378643061
 20
-1.438520184
 10
22.9378643061
 20
-1.438520184
 10
22.8369306641
 20
-1.4365603074
 10
22.7448164666
 20
-1.4297007395
 10
22.6615217135
 20
-1.4179414803
 10
22.5880263431
 20
-1.4012825296
 10
22.5223704789
 20
-1.3807038259
 10
22.4665139974
 20
-1.3562053692
 10
22.4184970221
 20
-1.3258272827
 10
22.3802794295
 20
-1.2915294432
 10
22.3205031949
 20
-1.2082346901
 10
22.277385911
 20
-1.1063211099
 10
22.2519075159
 20
-0.9867686408
 10
22.2430880715
 20
-0.8485973445
 10
22.2430880715
 20
-0.8485973445
 10
22.2519075159
 20
-0.7221853074
 10
22.2783658493
 20
-0.612432221
 10
22.3214831332
 20
-0.5203180235
 10
22.3832192443
 20
-0.4448627766
 10
22.4214368369
 20
-0.4135047519
 10
22.4665139974
 20
-0.3860664803
 10
22.5174707875
 20
-0.3625479617
 10
22.5752871456
 20
-0.3429491963
 10
22.6399630715
 20
-0.3282501222
 10
22.710518627
 20
-0.3184507395
 10
22.7879337505
 20
-0.3115911716
 10
22.8712285036
 20
-0.3096312951
 10
22.8712285036
 20
-0.3096312951
 10
23.3719769604
 20
-0.3096312951
 10
23.3719769604
 20
-0.3096312951
 10
23.3719769604
 20
-1.4130417889
  0
LWPOLYLINE
  5
74
330
1F
100
AcDbEntity
  8
0
  6
Continuous
 62
     7
100
AcDbPolyline
 90
       24
 70
   128
 43
0.0
 10
23.3719646931
 20
0.5056773469
 10
22.8731883801
 20
0.5056773469
 10
22.8731883801
 20
0.5056773469
 10
22.7467763431
 20
0.5125369148
 10
22.6360433184
 20
0.535075495
 10
22.5390294295
 20
0.5713332111
 10
22.4567146147
 20
0.6222900012
 10
22.3910587505
 20
0.6908856802
 10
22.3430417752
 20
0.7790801247
 10
22.3156035036
 20
0.8878532728
 10
22.3058041209
 20
1.0172051247
 10
22.3058041209
 20
1.0172051247
 10
22.3146235653
 20
1.1475369148
 10
22.3410818987
 20
1.2553301247
 10
22.3841991826
 20
1.3415646926
 10
22.4459352937
 20
1.404280742
 10
22.526290232
 20
1.4503378407
 10
22.6262439357
 20
1.4826758037
 10
22.7467763431
 20
1.5022745691
 10
22.8869075159
 20
1.509134137
 10
22.8869075159
 20
1.509134137
 10
23.3719769604
 20
1.509134137
 10
23.3719769604
 20
1.509134137
 10
23.3719769604
 20
0.5056773469
  0
LWPOLYLINE
  5
75
330
1F
100
AcDbEntity
  8
0
  6
Continuous
 62
     7
100
AcDbPolyline
 90
       73
 70
   128
 43
0.0
 10
22.9113996029
 20
2.324442779
 10
22.7144383801
 20
2.3205230259
 10
22.526290232
 20
2.3097437049
 10
22.3479414666
 20
2.2901449395
 10
22.1774322073
 20
2.2636866062
 10
22.017702269
 20
2.2284088284
 10
21.86973159
 20
2.1843116062
 10
21.7345001085
 20
2.1304150012
 10
21.6110278863
 20
2.0676989518
 10
21.5002948616
 20
1.9951835197
 10
21.4023010345
 20
1.9118887666
 10
21.3170464048
 20
1.8168347543
 10
21.245510911
 20
1.711001421
 10
21.187694553
 20
1.5934088284
 10
21.1465371456
 20
1.4630770383
 10
21.1220386888
 20
1.3209859889
 10
21.1141991826
 20
1.1651758037
 10
21.1141991826
 20
1.1651758037
 10
21.1171389974
 20
1.0603224086
 10
21.1259584419
 20
0.9613486432
 10
21.1406575159
 20
0.8672745691
 10
21.1612362196
 20
0.7800600629
 10
21.187694553
 20
0.6987251864
 10
21.2210124542
 20
0.6232699395
 10
21.2592300468
 20
0.5536943222
 10
21.303327269
 20
0.4899983345
 10
21.4091606024
 20
0.376325495
 10
21.5365525777
 20
0.2783316679
 10
21.6884430098
 20
0.1950369148
 10
21.8618920838
 20
0.1264412358
 10
21.8618920838
 20
0.1264412358
 10
21.6962825159
 20
0.0823440136
 10
21.5355726394
 20
0.0176680876
 10
21.4581575159
 20
-0.0225093815
 10
21.3866220221
 20
-0.0695464185
 10
21.3190062814
 20
-0.1244229617
 10
21.2572701703
 20
-0.1851791346
 10
21.2004337505
 20
-0.2527948753
 10
21.1484970221
 20
-0.3262902457
 10
21.1034198616
 20
-0.406645184
 10
21.0632423925
 20
-0.4928797519
 10
21.0309044295
 20
-0.5869538259
 10
21.007385911
 20
-0.6888674062
 10
20.9936667752
 20
-0.8015603074
 10
20.9887670838
 20
-0.9220927148
 10
20.9887670838
 20
-0.9220927148
 10
20.9975865283
 20
-1.1004414803
 10
21.0240448616
 20
-1.2640911716
 10
21.0691220221
 20
-1.4130417889
 10
21.1318380715
 20
-1.5472933321
 10
21.2102331332
 20
-1.6678257395
 10
21.3023473307
 20
-1.7775788259
 10
21.4091606024
 20
-1.8745927148
 10
21.5296930098
 20
-1.9598473445
 10
21.6629646147
 20
-2.0333427148
 10
21.8089754172
 20
-2.0960587642
 10
21.9657655406
 20
-2.1470155543
 10
22.1343149233
 20
-2.1862130852
 10
22.3116837505
 20
-2.2156112334
 10
22.4968920838
 20
-2.2371698753
 10
22.6889599851
 20
-2.2499090729
 10
22.8878874542
 20
-2.2538288259
 10
22.8878874542
 20
-2.2538288259
 10
23.0623164666
 20
-2.2508890111
 10
23.2455649233
 20
-2.243049505
 10
23.4405726394
 20
-2.2293303692
 10
23.6443997999
 20
-2.2097316037
 10
24.0677331332
 20
-2.152895184
 10
24.5008658493
 20
-2.0715603074
 10
24.5008658493
 20
-2.0715603074
 10
24.5008658493
 20
2.324442779
 10
24.5008658493
 20
2.324442779
 10
22.9114059727
 20
2.324442779
  0
LWPOLYLINE
  5
76
330
1F
100
AcDbEntity
  8
0
  6
Continuous
 62
     7
100
AcDbPolyline
 90
       71
 70
   128
 43
0.0
 10
17.8223848343
 20
2.324442779
 10
17.599944553
 20
2.3195430876
 10
17.3912177011
 20
2.3068038901
 10
17.1981698616
 20
2.2842653099
 10
17.0188411579
 20
2.2529072852
 10
16.85323159
 20
2.2117498778
 10
16.7023210962
 20
2.1568733345
 10
16.5661096764
 20
2.0902375321
 10
16.4445973307
 20
2.0098825938
 10
16.3368041209
 20
1.916788458
 10
16.2427300468
 20
1.8099751864
 10
16.1643349851
 20
1.6904227173
 10
16.0996590591
 20
1.5561711741
 10
16.048702269
 20
1.408200495
 10
16.012444553
 20
1.2425909271
 10
15.990885911
 20
1.0613023469
 10
15.9840263431
 20
0.863354816
 10
15.9840263431
 20
0.863354816
 10
15.9879460962
 20
0.7398825938
 10
16.0006852937
 20
0.625229816
 10
16.0212639974
 20
0.5213563592
 10
16.0506621456
 20
0.4263023469
 10
16.0869198616
 20
0.340067779
 10
16.128077269
 20
0.260692779
 10
16.1751143061
 20
0.1871974086
 10
16.2270510345
 20
0.1215415444
 10
16.3417038122
 20
0.0088486432
 10
16.4690957875
 20
-0.0813056778
 10
16.6013874542
 20
-0.1528411716
 10
16.7346590591
 20
-0.2126174062
 10
16.7346590591
 20
-0.2126174062
 10
16.6111868369
 20
-0.2684738877
 10
16.4984939357
 20
-0.3341297519
 10
16.3965803554
 20
-0.4105649371
 10
16.3054460962
 20
-0.4958195667
 10
16.2231312814
 20
-0.5977331469
 10
16.149635911
 20
-0.7212053692
 10
16.0859399233
 20
-0.8681961099
 10
16.0310633801
 20
-1.0377254309
 10
16.0310633801
 20
-1.0377254309
 10
15.6988643061
 20
-2.1911127766
 10
15.6988643061
 20
-2.1911127766
 10
16.9139877628
 20
-2.1911127766
 10
16.9139877628
 20
-2.1911127766
 10
17.1756312814
 20
-1.2983890111
 10
17.1756312814
 20
-1.2983890111
 10
17.2265880715
 20
-1.1376791346
 10
17.2814646147
 20
-0.9985279
 10
17.3108627628
 20
-0.9367917889
 10
17.3441806641
 20
-0.8799553692
 10
17.3814183184
 20
-0.8309584556
 10
17.4215957875
 20
-0.7868612334
 10
17.5146899233
 20
-0.7153257395
 10
17.6283627628
 20
-0.6643689494
 10
17.6930386888
 20
-0.6467300605
 10
17.7635942443
 20
-0.6330109247
 10
17.8419893061
 20
-0.6261513568
 10
17.9262639974
 20
-0.623211542
 10
17.9262639974
 20
-0.623211542
 10
18.0066189357
 20
-0.623211542
 10
18.0918735653
 20
-0.623211542
 10
18.1732084419
 20
-0.623211542
 10
18.2418041209
 20
-0.623211542
 10
18.2418041209
 20
-0.623211542
 10
18.2418041209
 20
-2.1911127766
 10
18.2418041209
 20
-2.1911127766
 10
19.3706930098
 20
-2.1911127766
 10
19.3706930098
 20
-2.1911127766
 10
19.3706930098
 20
2.324442779
 10
19.3706930098
 20
2.324442779
 10
17.8223905406
 20
2.324442779
  0
LWPOLYLINE
  5
77
330
1F
100
AcDbEntity
  8
0
  6
Continuous
 62
     7
100
AcDbPolyline
 90
       41
 70
   128
 43
0.0
 10
18.2417929173
 20
0.2116958654
 10
18.1418504172
 20
0.2009165444
 10
18.0399368369
 20
0.1950369148
 10
17.9409630715
 20
0.1930770383
 10
17.8517886888
 20
0.1920971
 10
17.8517886888
 20
0.1920971
 10
17.7577146147
 20
0.1940569765
 10
17.6695201703
 20
0.2018964827
 10
17.589165232
 20
0.2126758037
 10
17.5146899233
 20
0.2293347543
 10
17.4480541209
 20
0.249913458
 10
17.387297948
 20
0.2763717913
 10
17.3343812814
 20
0.3057699395
 10
17.2873442443
 20
0.3410477173
 10
17.2461868369
 20
0.3822051247
 10
17.2109090591
 20
0.4292421617
 10
17.181510911
 20
0.4841187049
 10
17.1560325159
 20
0.5448748778
 10
17.1374136888
 20
0.6134705568
 10
17.123694553
 20
0.6879458654
 10
17.1158550468
 20
0.769280742
 10
17.112915232
 20
0.8574751864
 10
17.112915232
 20
0.8574751864
 10
17.1158550468
 20
0.9525291987
 10
17.123694553
 20
1.0387637666
 10
17.1374136888
 20
1.1171588284
 10
17.1560325159
 20
1.1857545074
 10
17.1805309727
 20
1.2474906185
 10
17.2109090591
 20
1.3013872234
 10
17.2471667752
 20
1.3474443222
 10
17.2902840591
 20
1.3856619148
 10
17.3392809727
 20
1.4179998778
 10
17.3931775777
 20
1.4454381494
 10
17.4529538122
 20
1.4669967913
 10
17.5176297382
 20
1.4826758037
 10
17.6646204789
 20
1.5022745691
 10
17.8370896147
 20
1.509134137
 10
17.8370896147
 20
1.509134137
 10
18.2418041209
 20
1.509134137
 10
18.2418041209
 20
1.509134137
 10
18.2418041209
 20
0.2116958654
  0
LWPOLYLINE
  5
78
330
1F
100
AcDbEntity
  8
0
  6
Continuous
 62
     7
100
AcDbPolyline
 90
       48
 70
   128
 43
0.0
 10
13.2997781038
 20
-2.1911127766
 10
14.4286683184
 20
-2.1911127766
 10
14.4286683184
 20
-2.1911127766
 10
14.4286683184
 20
0.7300832111
 10
14.4286683184
 20
0.7300832111
 10
14.4227886888
 20
0.9152915444
 10
14.4061297382
 20
1.0916804333
 10
14.3786914666
 20
1.2582699395
 10
14.340473874
 20
1.4170199395
 10
14.2885371456
 20
1.5649906185
 10
14.2209214048
 20
1.7021819765
 10
14.1376266517
 20
1.826634137
 10
14.0386528863
 20
1.9403069765
 10
13.9230201703
 20
2.0422205568
 10
13.7907285036
 20
2.1313949395
 10
13.640797948
 20
2.2078301247
 10
13.4732285036
 20
2.2715261123
 10
13.2860602937
 20
2.3224829024
 10
13.0763535036
 20
2.3587406185
 10
12.8450880715
 20
2.3802992605
 10
12.5922639974
 20
2.3871588284
 10
12.5922639974
 20
2.3871588284
 10
12.3384599851
 20
2.3802992605
 10
12.1062146147
 20
2.3587406185
 10
11.8965078246
 20
2.3224829024
 10
11.7073797382
 20
2.2715261123
 10
11.5378504172
 20
2.2078301247
 10
11.3859599851
 20
2.1313949395
 10
11.2517084419
 20
2.0422205568
 10
11.1350957875
 20
1.9403069765
 10
11.0341621456
 20
1.826634137
 10
10.9489075159
 20
1.7021819765
 10
10.8783519604
 20
1.5649906185
 10
10.8234754172
 20
1.4170199395
 10
10.7823180098
 20
1.2582699395
 10
10.7519399233
 20
1.0916804333
 10
10.7343010345
 20
0.9152915444
 10
10.7284214048
 20
0.7300832111
 10
10.7284214048
 20
0.7300832111
 10
10.7284214048
 20
-2.1911127766
 10
10.7284214048
 20
-2.1911127766
 10
11.8573102937
 20
-2.1911127766
 10
11.8573102937
 20
-2.1911127766
 10
11.8573102937
 20
-0.6859275914
 10
11.8573102937
 20
-0.6859275914
 10
13.2997794295
 20
-0.6859275914
 10
13.2997794295
 20
-0.6859275914
 10
13.2997794295
 20
-2.1911127766
  0
LWPOLYLINE
  5
79
330
1F
100
AcDbEntity
  8
0
  6
Continuous
 62
     7
100
AcDbPolyline
 90
       40
 70
   128
 43
0.0
 10
11.8573084474
 20
0.1293810506
 10
11.8573102937
 20
0.8241572852
 10
11.8573102937
 20
0.8241572852
 10
11.8602501085
 20
0.9133316679
 10
11.8680896147
 20
0.996626421
 10
11.8818087505
 20
1.0750214827
 10
11.9004275777
 20
1.1475369148
 10
11.9249260345
 20
1.2141727173
 10
11.9553041209
 20
1.2759088284
 10
11.9905818987
 20
1.3317653099
 10
12.0307593678
 20
1.3817421617
 10
12.0768164666
 20
1.4258393839
 10
12.1297331332
 20
1.4650369148
 10
12.1895093678
 20
1.4973748778
 10
12.2541852937
 20
1.5248131494
 10
12.3257207875
 20
1.5453918531
 10
12.4041158493
 20
1.5600909271
 10
12.4883905406
 20
1.5689103716
 10
12.5785448616
 20
1.5718501864
 10
12.5785448616
 20
1.5718501864
 10
12.6686991826
 20
1.5689103716
 10
12.752973874
 20
1.5600909271
 10
12.8313689357
 20
1.5453918531
 10
12.9029044295
 20
1.5248131494
 10
12.9675803554
 20
1.4973748778
 10
13.02735659
 20
1.4650369148
 10
13.0802732567
 20
1.4258393839
 10
13.1263303554
 20
1.3817421617
 10
13.1665078246
 20
1.3317653099
 10
13.2017856024
 20
1.2759088284
 10
13.2321636888
 20
1.2141727173
 10
13.2566621456
 20
1.1475369148
 10
13.2752809727
 20
1.0750214827
 10
13.2890001085
 20
0.996626421
 10
13.2968396147
 20
0.9133316679
 10
13.2997794295
 20
0.8241572852
 10
13.2997794295
 20
0.8241572852
 10
13.2997794295
 20
0.1293810506
 10
13.2997794295
 20
0.1293810506
 10
11.8573102937
 20
0.1293810506
  0
LWPOLYLINE
  5
7A
330
1F
100
AcDbEntity
  8
0
  6
Continuous
 62
     7
100
AcDbPolyline
 90
        8
 70
   128
 43
0.0
 10
7.7933073044
 20
2.324442779
 10
7.7933102937
 20
-2.1911127766
 10
7.7933102937
 20
-2.1911127766
 10
8.9221991826
 20
-2.1911127766
 10
8.9221991826
 20
-2.1911127766
 10
8.9221991826
 20
2.324442779
 10
8.9221991826
 20
2.324442779
 10
7.7933102937
 20
2.324442779
  0
LWPOLYLINE
  5
7B
330
1F
100
AcDbEntity
  8
0
  6
Continuous
 62
     7
100
AcDbPolyline
 90
       12
 70
   128
 43
0.0
 10
4.6700499952
 20
2.324442779
 10
4.6700510345
 20
-1.3758041346
 10
4.6700510345
 20
-1.3758041346
 10
2.9708380715
 20
-1.3758041346
 10
2.9708380715
 20
-1.3758041346
 10
2.9708380715
 20
-2.1911127766
 10
2.9708380715
 20
-2.1911127766
 10
5.7989399233
 20
-2.1911127766
 10
5.7989399233
 20
-2.1911127766
 10
5.7989399233
 20
2.324442779
 10
5.7989399233
 20
2.324442779
 10
4.6700510345
 20
2.324442779
  0
LWPOLYLINE
  5
7C
330
1F
100
AcDbEntity
  8
0
  6
Continuous
 62
     7
100
AcDbPolyline
 90
       12
 70
   128
 43
0.0
 10
0.2924706787
 20
2.324442779
 10
0.2924707875
 20
-1.3758041346
 10
0.2924707875
 20
-1.3758041346
 10
-1.4067421754
 20
-1.3758041346
 10
-1.4067421754
 20
-1.3758041346
 10
-1.4067421754
 20
-2.1911127766
 10
-1.4067421754
 20
-2.1911127766
 10
1.4213596764
 20
-2.1911127766
 10
1.4213596764
 20
-2.1911127766
 10
1.4213596764
 20
2.324442779
 10
1.4213596764
 20
2.324442779
 10
0.2924707875
 20
2.324442779
  0
LWPOLYLINE
  5
7D
330
1F
100
AcDbEntity
  8
0
  6
Continuous
 62
     7
100
AcDbPolyline
 90
       54
 70
   128
 43
0.0
 10
-5.8039203286
 20
2.324442779
 10
-5.8039211878
 20
1.509134137
 10
-5.8039211878
 20
1.509134137
 10
-4.02239341
 20
1.509134137
 10
-4.02239341
 20
1.509134137
 10
-4.02239341
 20
0.5056773469
 10
-4.02239341
 20
0.5056773469
 10
-5.68926841
 20
0.5056773469
 10
-5.68926841
 20
0.5056773469
 10
-5.68926841
 20
-0.3096312951
 10
-5.68926841
 20
-0.3096312951
 10
-4.02239341
 20
-0.3096312951
 10
-4.02239341
 20
-0.3096312951
 10
-4.02239341
 20
-0.9230726531
 10
-4.02239341
 20
-0.9230726531
 10
-4.0253332248
 20
-0.9897084556
 10
-4.033172731
 20
-1.0504646284
 10
-4.0459119285
 20
-1.1053411716
 10
-4.0645307557
 20
-1.1543380852
 10
-4.0890292125
 20
-1.1974553692
 10
-4.1174474223
 20
-1.2337130852
 10
-4.1517452618
 20
-1.2650711099
 10
-4.191922731
 20
-1.2895695667
 10
-4.2810971137
 20
-1.326807221
 10
-4.3800708791
 20
-1.3542454926
 10
-4.487864089
 20
-1.369924505
 10
-4.6054566816
 20
-1.3758041346
 10
-4.6054566816
 20
-1.3758041346
 10
-5.8783964964
 20
-1.3758041346
 10
-5.8783964964
 20
-1.3758041346
 10
-5.8783964964
 20
-2.1911127766
 10
-5.8783964964
 20
-2.1911127766
 10
-4.5447005088
 20
-2.1911127766
 10
-4.5447005088
 20
-2.1911127766
 10
-4.350672731
 20
-2.1871930235
 10
-4.1684042125
 20
-2.1754337642
 10
-3.9969150149
 20
-2.1568149371
 10
-3.8371850767
 20
-2.1303566037
 10
-3.6901943359
 20
-2.0940988877
 10
-3.5549628544
 20
-2.0470618506
 10
-3.4314906322
 20
-1.9882655543
 10
-3.3197776693
 20
-1.9196698753
 10
-3.2208039038
 20
-1.8383349988
 10
-3.1355492742
 20
-1.745240863
 10
-3.0620539038
 20
-1.6403874679
 10
-3.001297731
 20
-1.5227948753
 10
-2.9542606939
 20
-1.3905032087
 10
-2.9209427927
 20
-1.2435124679
 10
-2.900364089
 20
-1.0798627766
 10
-2.8935045211
 20
-0.9005340729
 10
-2.8935045211
 20
-0.9005340729
 10
-2.8935045211
 20
2.324442779
 10
-2.8935045211
 20
2.324442779
 10
-5.8039211878
 20
2.324442779
  0
LWPOLYLINE
  5
7E
330
1F
100
AcDbEntity
  8
0
  6
Continuous
 62
     7
100
AcDbPolyline
 90
       16
 70
   128
 43
0.0
 10
-13.7359276414
 20
2.324442779
 10
-13.7359335334
 20
1.509134137
 10
-13.7359335334
 20
1.509134137
 10
-12.4012576075
 20
1.509134137
 10
-12.4012576075
 20
1.509134137
 10
-12.4012576075
 20
-2.1911127766
 10
-12.4012576075
 20
-2.1911127766
 10
-11.2723687186
 20
-2.1911127766
 10
-11.2723687186
 20
-2.1911127766
 10
-11.2723687186
 20
1.509134137
 10
-11.2723687186
 20
1.509134137
 10
-9.9376927927
 20
1.509134137
 10
-9.9376927927
 20
1.509134137
 10
-9.9376927927
 20
2.324442779
 10
-9.9376927927
 20
2.324442779
 10
-13.7359335334
 20
2.324442779
  0
LWPOLYLINE
  5
7F
330
1F
100
AcDbEntity
  8
0
  6
Continuous
 62
     7
100
AcDbPolyline
 90
       71
 70
   128
 43
0.0
 10
-16.7592316866
 20
2.324442779
 10
-16.9816850767
 20
2.3195430876
 10
-17.1904119285
 20
2.3068038901
 10
-17.383459768
 20
2.2842653099
 10
-17.5627884717
 20
2.2529072852
 10
-17.7283980396
 20
2.2117498778
 10
-17.8793085334
 20
2.1568733345
 10
-18.0155199532
 20
2.0902375321
 10
-18.1370322989
 20
2.0098825938
 10
-18.2448255088
 20
1.916788458
 10
-18.3388995828
 20
1.8099751864
 10
-18.4172946446
 20
1.6904227173
 10
-18.4819705705
 20
1.5561711741
 10
-18.5329273606
 20
1.408200495
 10
-18.5691850767
 20
1.2425909271
 10
-18.5907437186
 20
1.0613023469
 10
-18.5976032865
 20
0.863354816
 10
-18.5976032865
 20
0.863354816
 10
-18.5936835334
 20
0.7398825938
 10
-18.5809443359
 20
0.625229816
 10
-18.5603656322
 20
0.5213563592
 10
-18.5309674841
 20
0.4263023469
 10
-18.494709768
 20
0.340067779
 10
-18.4535523606
 20
0.260692779
 10
-18.4065153236
 20
0.1871974086
 10
-18.3545785952
 20
0.1215415444
 10
-18.2399258174
 20
0.0088486432
 10
-18.1125338421
 20
-0.0813056778
 10
-17.9802421754
 20
-0.1528411716
 10
-17.8469705705
 20
-0.2126174062
 10
-17.8469705705
 20
-0.2126174062
 10
-17.9704427927
 20
-0.2684738877
 10
-18.0831356939
 20
-0.3341297519
 10
-18.1850492742
 20
-0.4105649371
 10
-18.2761835334
 20
-0.4958195667
 10
-18.3584983483
 20
-0.5977331469
 10
-18.4319937186
 20
-0.7212053692
 10
-18.4956897063
 20
-0.8681961099
 10
-18.5505662495
 20
-1.0377254309
 10
-18.5505662495
 20
-1.0377254309
 10
-18.8827653236
 20
-2.1911127766
 10
-18.8827653236
 20
-2.1911127766
 10
-17.6676418668
 20
-2.1911127766
 10
-17.6676418668
 20
-2.1911127766
 10
-17.4059983483
 20
-1.2983890111
 10
-17.4059983483
 20
-1.2983890111
 10
-17.3550415581
 20
-1.1376791346
 10
-17.3001650149
 20
-0.9985279
 10
-17.2707668668
 20
-0.9367917889
 10
-17.2374489655
 20
-0.8799553692
 10
-17.2002113112
 20
-0.8309584556
 10
-17.1600338421
 20
-0.7868612334
 10
-17.0669397063
 20
-0.7153257395
 10
-16.9532668668
 20
-0.6643689494
 10
-16.8885909409
 20
-0.6467300605
 10
-16.8180353853
 20
-0.6330109247
 10
-16.7396403236
 20
-0.6261513568
 10
-16.6553656322
 20
-0.623211542
 10
-16.6553656322
 20
-0.623211542
 10
-16.5750106939
 20
-0.623211542
 10
-16.4897560643
 20
-0.623211542
 10
-16.4084211878
 20
-0.623211542
 10
-16.3398255088
 20
-0.623211542
 10
-16.3398255088
 20
-0.623211542
 10
-16.3398255088
 20
-2.1911127766
 10
-16.3398255088
 20
-2.1911127766
 10
-15.2109366199
 20
-2.1911127766
 10
-15.2109366199
 20
-2.1911127766
 10
-15.2109366199
 20
2.324442779
 10
-15.2109366199
 20
2.324442779
 10
-16.759239089
 20
2.324442779
  0
LWPOLYLINE
  5
80
330
1F
100
AcDbEntity
  8
0
  6
Continuous
 62
     7
100
AcDbPolyline
 90
       41
 70
   128
 43
0.0
 10
-16.3398236036
 20
0.2116958654
 10
-16.4397792125
 20
0.2009165444
 10
-16.5416927927
 20
0.1950369148
 10
-16.6406665581
 20
0.1930770383
 10
-16.7298409409
 20
0.1920971
 10
-16.7298409409
 20
0.1920971
 10
-16.8239150149
 20
0.1940569765
 10
-16.9121094594
 20
0.2018964827
 10
-16.9924643976
 20
0.2126758037
 10
-17.0669397063
 20
0.2293347543
 10
-17.1335755088
 20
0.249913458
 10
-17.1943316816
 20
0.2763717913
 10
-17.2472483483
 20
0.3057699395
 10
-17.2942853853
 20
0.3410477173
 10
-17.3354427927
 20
0.3822051247
 10
-17.3707205705
 20
0.4292421617
 10
-17.4001187186
 20
0.4841187049
 10
-17.4255971137
 20
0.5448748778
 10
-17.4442159409
 20
0.6134705568
 10
-17.4579350767
 20
0.6879458654
 10
-17.4657745828
 20
0.769280742
 10
-17.4687143976
 20
0.8574751864
 10
-17.4687143976
 20
0.8574751864
 10
-17.4657745828
 20
0.9525291987
 10
-17.4579350767
 20
1.0387637666
 10
-17.4442159409
 20
1.1171588284
 10
-17.4255971137
 20
1.1857545074
 10
-17.4010986569
 20
1.2474906185
 10
-17.3707205705
 20
1.3013872234
 10
-17.3344628544
 20
1.3474443222
 10
-17.2913455705
 20
1.3856619148
 10
-17.2423486569
 20
1.4179998778
 10
-17.188452052
 20
1.4454381494
 10
-17.1286758174
 20
1.4669967913
 10
-17.0639998915
 20
1.4826758037
 10
-16.9170091507
 20
1.5022745691
 10
-16.7445400149
 20
1.509134137
 10
-16.7445400149
 20
1.509134137
 10
-16.3398255088
 20
1.509134137
 10
-16.3398255088
 20
1.509134137
 10
-16.3398255088
 20
0.2116958654
  0
LWPOLYLINE
  5
81
330
1F
100
AcDbEntity
  8
0
  6
Continuous
 62
     7
100
AcDbPolyline
 90
       48
 70
   128
 43
0.0
 10
-21.2818384171
 20
-2.1911127766
 10
-20.1529613112
 20
-2.1911127766
 10
-20.1529613112
 20
-2.1911127766
 10
-20.1529613112
 20
0.7300832111
 10
-20.1529613112
 20
0.7300832111
 10
-20.1588409409
 20
0.9152915444
 10
-20.1754998915
 20
1.0916804333
 10
-20.2029381631
 20
1.2582699395
 10
-20.2411557557
 20
1.4170199395
 10
-20.2930924841
 20
1.5649906185
 10
-20.3607082248
 20
1.7021819765
 10
-20.4440029779
 20
1.826634137
 10
-20.5429767433
 20
1.9403069765
 10
-20.6586094594
 20
2.0422205568
 10
-20.790901126
 20
2.1313949395
 10
-20.9408316816
 20
2.2078301247
 10
-21.108401126
 20
2.2715261123
 10
-21.2955693359
 20
2.3224829024
 10
-21.505276126
 20
2.3587406185
 10
-21.7365415581
 20
2.3802992605
 10
-21.9893656322
 20
2.3871588284
 10
-21.9893656322
 20
2.3871588284
 10
-22.2431696446
 20
2.3802992605
 10
-22.4754150149
 20
2.3587406185
 10
-22.6851218051
 20
2.3224829024
 10
-22.8742498915
 20
2.2715261123
 10
-23.0437792125
 20
2.2078301247
 10
-23.1956696446
 20
2.1313949395
 10
-23.3299211878
 20
2.0422205568
 10
-23.4465338421
 20
1.9403069765
 10
-23.5474674841
 20
1.826634137
 10
-23.6327221137
 20
1.7021819765
 10
-23.7032776693
 20
1.5649906185
 10
-23.7581542125
 20
1.4170199395
 10
-23.7993116199
 20
1.2582699395
 10
-23.8296897063
 20
1.0916804333
 10
-23.8473285952
 20
0.9152915444
 10
-23.8532082248
 20
0.7300832111
 10
-23.8532082248
 20
0.7300832111
 10
-23.8532082248
 20
-2.1911127766
 10
-23.8532082248
 20
-2.1911127766
 10
-22.7243193359
 20
-2.1911127766
 10
-22.7243193359
 20
-2.1911127766
 10
-22.7243193359
 20
-0.6859275914
 10
-22.7243193359
 20
-0.6859275914
 10
-21.2818502001
 20
-0.6859275914
 10
-21.2818502001
 20
-0.6859275914
 10
-21.2818502001
 20
-2.1911127766
  0
LWPOLYLINE
  5
82
330
1F
100
AcDbEntity
  8
0
  6
Continuous
 62
     7
100
AcDbPolyline
 90
       40
 70
   128
 43
0.0
 10
-22.7243155241
 20
0.1293810506
 10
-22.7243193359
 20
0.8241572852
 10
-22.7243193359
 20
0.8241572852
 10
-22.7213795211
 20
0.9133316679
 10
-22.7135400149
 20
0.996626421
 10
-22.6998208791
 20
1.0750214827
 10
-22.681202052
 20
1.1475369148
 10
-22.6567035952
 20
1.2141727173
 10
-22.6263255088
 20
1.2759088284
 10
-22.591047731
 20
1.3317653099
 10
-22.5508702618
 20
1.3817421617
 10
-22.5048131631
 20
1.4258393839
 10
-22.4518964964
 20
1.4650369148
 10
-22.3921202618
 20
1.4973748778
 10
-22.3274443359
 20
1.5248131494
 10
-22.2559088421
 20
1.5453918531
 10
-22.1775137804
 20
1.5600909271
 10
-22.093239089
 20
1.5689103716
 10
-22.003084768
 20
1.5718501864
 10
-22.003084768
 20
1.5718501864
 10
-21.912930447
 20
1.5689103716
 10
-21.8286557557
 20
1.5600909271
 10
-21.7502606939
 20
1.5453918531
 10
-21.6787252001
 20
1.5248131494
 10
-21.6140492742
 20
1.4973748778
 10
-21.5542730396
 20
1.4650369148
 10
-21.501356373
 20
1.4258393839
 10
-21.4552992742
 20
1.3817421617
 10
-21.4151218051
 20
1.3317653099
 10
-21.3798440273
 20
1.2759088284
 10
-21.3494659409
 20
1.2141727173
 10
-21.3249674841
 20
1.1475369148
 10
-21.3063486569
 20
1.0750214827
 10
-21.2926295211
 20
0.996626421
 10
-21.2847900149
 20
0.9133316679
 10
-21.2818502001
 20
0.8241572852
 10
-21.2818502001
 20
0.8241572852
 10
-21.2818502001
 20
0.1293810506
 10
-21.2818502001
 20
0.1293810506
 10
-22.7243193359
 20
0.1293810506
  0
LWPOLYLINE
  5
83
330
1F
100
AcDbEntity
  8
0
  6
Continuous
 62
     7
100
AcDbPolyline
 90
        8
 70
   128
 43
0.0
 10
-26.7883092165
 20
2.324442779
 10
-26.7883193359
 20
-2.1911127766
 10
-26.7883193359
 20
-2.1911127766
 10
-25.659430447
 20
-2.1911127766
 10
-25.659430447
 20
-2.1911127766
 10
-25.659430447
 20
2.324442779
 10
-25.659430447
 20
2.324442779
 10
-26.7883193359
 20
2.324442779
  0
LWPOLYLINE
  5
84
330
1F
100
AcDbEntity
  8
0
  6
Continuous
 62
     7
100
AcDbPolyline
 90
       22
 70
   128
 43
0.0
 10
-29.6832472086
 20
2.324442779
 10
-31.6676279779
 20
0.0970430876
 10
-31.6676279779
 20
0.0970430876
 10
-31.6676279779
 20
2.324442779
 10
-31.6676279779
 20
2.324442779
 10
-32.7965168668
 20
2.324442779
 10
-32.7965168668
 20
2.324442779
 10
-32.7965168668
 20
-2.1911127766
 10
-32.7965168668
 20
-2.1911127766
 10
-31.6676279779
 20
-2.1911127766
 10
-31.6676279779
 20
-2.1911127766
 10
-31.6676279779
 20
-1.2876096901
 10
-31.6676279779
 20
-1.2876096901
 10
-29.9115785952
 20
0.7016650012
 10
-29.9115785952
 20
0.7016650012
 10
-29.9115785952
 20
-2.1911127766
 10
-29.9115785952
 20
-2.1911127766
 10
-28.7826897063
 20
-2.1911127766
 10
-28.7826897063
 20
-2.1911127766
 10
-28.7826897063
 20
2.324442779
 10
-28.7826897063
 20
2.324442779
 10
-29.6832529779
 20
2.324442779
  0
LWPOLYLINE
  5
85
330
1F
100
AcDbEntity
  8
0
  6
Continuous
 62
     7
100
AcDbPolyline
 90
       54
 70
   128
 43
0.0
 10
-37.5758707523
 20
2.324442779
 10
-37.5758718051
 20
1.509134137
 10
-37.5758718051
 20
1.509134137
 10
-35.7943440273
 20
1.509134137
 10
-35.7943440273
 20
1.509134137
 10
-35.7943440273
 20
0.5056773469
 10
-35.7943440273
 20
0.5056773469
 10
-37.4612190273
 20
0.5056773469
 10
-37.4612190273
 20
0.5056773469
 10
-37.4612190273
 20
-0.3096312951
 10
-37.4612190273
 20
-0.3096312951
 10
-35.7943440273
 20
-0.3096312951
 10
-35.7943440273
 20
-0.3096312951
 10
-35.7943440273
 20
-0.9230726531
 10
-35.7943440273
 20
-0.9230726531
 10
-35.7972838421
 20
-0.9897084556
 10
-35.8051233483
 20
-1.0504646284
 10
-35.8178625458
 20
-1.1053411716
 10
-35.836481373
 20
-1.1543380852
 10
-35.8609798297
 20
-1.1974553692
 10
-35.8893980396
 20
-1.2337130852
 10
-35.9236958791
 20
-1.2650711099
 10
-35.9638733483
 20
-1.2895695667
 10
-36.053047731
 20
-1.326807221
 10
-36.1520214964
 20
-1.3542454926
 10
-36.2598147063
 20
-1.369924505
 10
-36.3774072989
 20
-1.3758041346
 10
-36.3774072989
 20
-1.3758041346
 10
-37.6503471137
 20
-1.3758041346
 10
-37.6503471137
 20
-1.3758041346
 10
-37.6503471137
 20
-2.1911127766
 10
-37.6503471137
 20
-2.1911127766
 10
-36.316651126
 20
-2.1911127766
 10
-36.316651126
 20
-2.1911127766
 10
-36.1226233483
 20
-2.1871930235
 10
-35.9403548297
 20
-2.1754337642
 10
-35.7688656322
 20
-2.1568149371
 10
-35.6091356939
 20
-2.1303566037
 10
-35.4621449532
 20
-2.0940988877
 10
-35.3269134717
 20
-2.0470618506
 10
-35.2034412495
 20
-1.9882655543
 10
-35.0917282865
 20
-1.9196698753
 10
-34.9927545211
 20
-1.8383349988
 10
-34.9074998915
 20
-1.745240863
 10
-34.8340045211
 20
-1.6403874679
 10
-34.7732483483
 20
-1.5227948753
 10
-34.7262113112
 20
-1.3905032087
 10
-34.69289341
 20
-1.2435124679
 10
-34.6723147063
 20
-1.0798627766
 10
-34.6654551384
 20
-0.9005340729
 10
-34.6654551384
 20
-0.9005340729
 10
-34.6654551384
 20
2.324442779
 10
-34.6654551384
 20
2.324442779
 10
-37.5758718051
 20
2.324442779
  0
LWPOLYLINE
  5
86
330
1F
100
AcDbEntity
  8
0
  6
Continuous
 62
     7
100
AcDbPolyline
 90
       71
 70
   128
 43
0.0
 10
-40.9676134586
 20
2.324442779
 10
-41.1900801384
 20
2.3195430876
 10
-41.3988069902
 20
2.3068038901
 10
-41.5918548297
 20
2.2842653099
 10
-41.7711835334
 20
2.2529072852
 10
-41.9367931013
 20
2.2117498778
 10
-42.0877035952
 20
2.1568733345
 10
-42.2239150149
 20
2.0902375321
 10
-42.3454273606
 20
2.0098825938
 10
-42.4532205705
 20
1.916788458
 10
-42.5472946446
 20
1.8099751864
 10
-42.6256897063
 20
1.6904227173
 10
-42.6903656322
 20
1.5561711741
 10
-42.7413224223
 20
1.408200495
 10
-42.7775801384
 20
1.2425909271
 10
-42.7991387804
 20
1.0613023469
 10
-42.8059983483
 20
0.863354816
 10
-42.8059983483
 20
0.863354816
 10
-42.8020785952
 20
0.7398825938
 10
-42.7893393976
 20
0.625229816
 10
-42.7687606939
 20
0.5213563592
 10
-42.7393625458
 20
0.4263023469
 10
-42.7031048297
 20
0.340067779
 10
-42.6619474223
 20
0.260692779
 10
-42.6149103853
 20
0.1871974086
 10
-42.5629736569
 20
0.1215415444
 10
-42.4483208791
 20
0.0088486432
 10
-42.3209289038
 20
-0.0813056778
 10
-42.1886372372
 20
-0.1528411716
 10
-42.0553656322
 20
-0.2126174062
 10
-42.0553656322
 20
-0.2126174062
 10
-42.1788378544
 20
-0.2684738877
 10
-42.2915307557
 20
-0.3341297519
 10
-42.3934443359
 20
-0.4105649371
 10
-42.4845785952
 20
-0.4958195667
 10
-42.56689341
 20
-0.5977331469
 10
-42.6403887804
 20
-0.7212053692
 10
-42.704084768
 20
-0.8681961099
 10
-42.7589613112
 20
-1.0377254309
 10
-42.7589613112
 20
-1.0377254309
 10
-43.0911603853
 20
-2.1911127766
 10
-43.0911603853
 20
-2.1911127766
 10
-41.8760369285
 20
-2.1911127766
 10
-41.8760369285
 20
-2.1911127766
 10
-41.61439341
 20
-1.2983890111
 10
-41.61439341
 20
-1.2983890111
 10
-41.5634366199
 20
-1.1376791346
 10
-41.5085600767
 20
-0.9985279
 10
-41.4791619285
 20
-0.9367917889
 10
-41.4458440273
 20
-0.8799553692
 10
-41.408606373
 20
-0.8309584556
 10
-41.3684289038
 20
-0.7868612334
 10
-41.275334768
 20
-0.7153257395
 10
-41.1616619285
 20
-0.6643689494
 10
-41.0969860026
 20
-0.6467300605
 10
-41.026430447
 20
-0.6330109247
 10
-40.9480353853
 20
-0.6261513568
 10
-40.8637606939
 20
-0.623211542
 10
-40.8637606939
 20
-0.623211542
 10
-40.7834057557
 20
-0.623211542
 10
-40.698151126
 20
-0.623211542
 10
-40.6168162495
 20
-0.623211542
 10
-40.5482205705
 20
-0.623211542
 10
-40.5482205705
 20
-0.623211542
 10
-40.5482205705
 20
-2.1911127766
 10
-40.5482205705
 20
-2.1911127766
 10
-39.4193316816
 20
-2.1911127766
 10
-39.4193316816
 20
-2.1911127766
 10
-39.4193316816
 20
2.324442779
 10
-39.4193316816
 20
2.324442779
 10
-40.9676341507
 20
2.324442779
  0
LWPOLYLINE
  5
87
330
1F
100
AcDbEntity
  8
0
  6
Continuous
 62
     7
100
AcDbPolyline
 90
       41
 70
   128
 43
0.0
 10
-40.5482053757
 20
0.2116958654
 10
-40.6481742742
 20
0.2009165444
 10
-40.7500878544
 20
0.1950369148
 10
-40.8490616199
 20
0.1930770383
 10
-40.9382360026
 20
0.1920971
 10
-40.9382360026
 20
0.1920971
 10
-41.0323100767
 20
0.1940569765
 10
-41.1205045211
 20
0.2018964827
 10
-41.2008594594
 20
0.2126758037
 10
-41.275334768
 20
0.2293347543
 10
-41.3419705705
 20
0.249913458
 10
-41.4027267433
 20
0.2763717913
 10
-41.45564341
 20
0.3057699395
 10
-41.502680447
 20
0.3410477173
 10
-41.5438378544
 20
0.3822051247
 10
-41.5791156322
 20
0.4292421617
 10
-41.6085137804
 20
0.4841187049
 10
-41.6339921754
 20
0.5448748778
 10
-41.6526110026
 20
0.6134705568
 10
-41.6663301384
 20
0.6879458654
 10
-41.6741696446
 20
0.769280742
 10
-41.6771094594
 20
0.8574751864
 10
-41.6771094594
 20
0.8574751864
 10
-41.6741696446
 20
0.9525291987
 10
-41.6663301384
 20
1.0387637666
 10
-41.6526110026
 20
1.1171588284
 10
-41.6339921754
 20
1.1857545074
 10
-41.6094937186
 20
1.2474906185
 10
-41.5791156322
 20
1.3013872234
 10
-41.5428579162
 20
1.3474443222
 10
-41.4997406322
 20
1.3856619148
 10
-41.4507437186
 20
1.4179998778
 10
-41.3968471137
 20
1.4454381494
 10
-41.3370708791
 20
1.4669967913
 10
-41.2723949532
 20
1.4826758037
 10
-41.1254042125
 20
1.5022745691
 10
-40.9529350767
 20
1.509134137
 10
-40.9529350767
 20
1.509134137
 10
-40.5482205705
 20
1.509134137
 10
-40.5482205705
 20
1.509134137
 10
-40.5482205705
 20
0.2116958654
  0
CIRCLE
  5
92
330
1F
100
AcDbEntity
  8
0
  6
Continuous
 62
     7
370
    25
100
AcDbCircle
 10
38.063028106
 20
-0.4438243685
 30
0.0
 40
2.250000000000004
  0
CIRCLE
  5
93
330
1F
100
AcDbEntity
  8
0
  6
Continuous
 62
     7
370
    25
100
AcDbCircle
 10
29.5874429148
 20
-0.4438243685
 30
0.0
 40
2.250000000000004
  0
CIRCLE
  5
94
330
1F
100
AcDbEntity
  8
0
  6
Continuous
 62
     7
370
    25
100
AcDbCircle
 10
33.8252355104
 20
-7.783896456
 30
0.0
 40
2.250000000000014
  0
CIRCLE
  5
95
330
1F
100
AcDbEntity
  8
0
  6
Continuous
 62
     7
370
    25
100
AcDbCircle
 10
42.3008207016
 20
-7.783896456
 30
0.0
 40
2.250000000000013
  0
CIRCLE
  5
96
330
1F
100
AcDbEntity
  8
0
  6
Continuous
 62
     7
370
    25
100
AcDbCircle
 10
46.5386132972
 20
-0.4438243685
 30
0.0
 40
2.249999999999989
  0
CIRCLE
  5
97
330
1F
100
AcDbEntity
  8
0
  6
Continuous
 62
     7
370
    25
100
AcDbCircle
 10
42.3008207016
 20
6.896247719
 30
0.0
 40
2.250000000000014
  0
CIRCLE
  5
98
330
1F
100
AcDbEntity
  8
0
  6
Continuous
 62
     7
370
    25
100
AcDbCircle
 10
33.8252355104
 20
6.896247719
 30
0.0
 40
2.24999999999999
  0
LINE
  5
9B
330
1F
100
AcDbEntity
  8
0
  6
Continuous
 62
     7
370
    25
100
AcDbLine
 10
-55.0
 20
-14.4984944243
 30
0.0
 11
55.0
 21
-14.4984944243
 31
0.0
  0
LINE
  5
9C
330
1F
100
AcDbEntity
  8
0
  6
Continuous
 62
     7
370
    25
100
AcDbLine
 10
-55.0
 20
-10.0
 30
0.0
 11
-55.0
 21
-14.4984944243
 31
0.0
  0
LINE
  5
9D
330
1F
100
AcDbEntity
  8
0
  6
Continuous
 62
     7
370
    25
100
AcDbLine
 10
-60.5
 20
-10.0
 30
0.0
 11
-55.0
 21
-10.0
 31
0.0
  0
LINE
  5
9E
330
1F
100
AcDbEntity
  8
0
  6
Continuous
 62
     7
370
    25
100
AcDbLine
 10
-60.5
 20
10.0
 30
0.0
 11
-60.5
 21
-10.0
 31
0.0
  0
LINE
  5
9F
330
1F
100
AcDbEntity
  8
0
  6
Continuous
 62
     7
370
    25
100
AcDbLine
 10
55.0
 20
14.4984944243
 30
0.0
 11
-55.0
 21
14.4984944243
 31
0.0
  0
LINE
  5
A0
330
1F
100
AcDbEntity
  8
0
  6
Continuous
 62
     7
370
    25
100
AcDbLine
 10
55.0
 20
10.0
 30
0.0
 11
55.0
 21
14.4984944243
 31
0.0
  0
LINE
  5
A1
330
1F
100
AcDbEntity
  8
0
  6
Continuous
 62
     7
370
    25
100
AcDbLine
 10
60.5
 20
10.0
 30
0.0
 11
55.0
 21
10.0
 31
0.0
  0
LINE
  5
A2
330
1F
100
AcDbEntity
  8
0
  6
Continuous
 62
     7
370
    25
100
AcDbLine
 10
60.5
 20
10.0
 30
0.0
 11
60.5
 21
-10.0
 31
0.0
  0
LINE
  5
A3
330
1F
100
AcDbEntity
  8
0
  6
Continuous
 62
     7
370
    25
100
AcDbLine
 10
60.5
 20
-10.0
 30
0.0
 11
55.0
 21
-10.0
 31
0.0
  0
LINE
  5
A4
330
1F
100
AcDbEntity
  8
0
  6
Continuous
 62
     7
370
    25
100
AcDbLine
 10
55.0
 20
-14.4984944243
 30
0.0
 11
55.0
 21
-10.0
 31
0.0
  0
LINE
  5
A5
330
1F
100
AcDbEntity
  8
0
  6
Continuous
 62
     7
370
    25
100
AcDbLine
 10
-60.5
 20
10.0
 30
0.0
 11
-55.0
 21
10.0
 31
0.0
  0
LINE
  5
A6
330
1F
100
AcDbEntity
  8
0
  6
Continuous
 62
     7
370
    25
100
AcDbLine
 10
-55.0
 20
14.4984944243
 30
0.0
 11
-55.0
 21
10.0
 31
0.0
  0
ENDSEC
  0
SECTION
  2
OBJECTS
  0
DICTIONARY
  5
C
330
0
100
AcDbDictionary
281
     1
  3
ACAD_GROUP
350
D
  3
ACAD_LAYOUT
350
1A
  3
ACAD_MLINESTYLE
350
17
  3
ACAD_PLOTSETTINGS
350
19
  3
ACAD_PLOTSTYLENAME
350
E
  3
ACAD_SCALELIST
350
47
  0
DICTIONARY
  5
D
102
{ACAD_REACTORS
330
C
102
}
330
C
100
AcDbDictionary
281
     1
  0
DICTIONARY
  5
1A
102
{ACAD_REACTORS
330
C
102
}
330
C
100
AcDbDictionary
281
     1
  3
Layout1
350
1E
  3
Layout2
350
26
  3
Model
350
22
  0
DICTIONARY
  5
17
102
{ACAD_REACTORS
330
C
102
}
330
C
100
AcDbDictionary
281
     1
  3
Standard
350
18
  0
DICTIONARY
  5
19
102
{ACAD_REACTORS
330
C
102
}
330
C
100
AcDbDictionary
281
     1
  0
ACDBDICTIONARYWDFLT
  5
E
102
{ACAD_REACTORS
330
C
102
}
330
C
100
AcDbDictionary
281
     1
  3
Normal
350
F
100
AcDbDictionaryWithDefault
340
F
  0
DICTIONARY
  5
47
102
{ACAD_REACTORS
330
C
102
}
330
C
100
AcDbDictionary
281
     1
  3
A0
350
48
  3
A1
350
49
  3
A2
350
4A
  3
A3
350
4B
  3
A4
350
4C
  3
A5
350
4D
  3
A6
350
4E
  3
A7
350
4F
  3
A8
350
50
  3
A9
350
51
  3
B0
350
52
  3
B1
350
53
  3
B2
350
54
  3
B3
350
55
  3
B4
350
56
  3
B5
350
57
  3
B6
350
58
  3
B7
350
59
  3
B8
350
5A
  3
B9
350
5B
  3
C0
350
5C
  3
C1
350
5D
  3
C2
350
5E
  3
C3
350
5F
  3
C4
350
60
  3
C5
350
61
  3
C6
350
62
  3
C7
350
63
  3
C8
350
64
  3
C9
350
65
  3
D0
350
66
  3
D1
350
67
  3
D2
350
68
  0
LAYOUT
  5
1E
102
{ACAD_REACTORS
330
1A
102
}
330
1A
100
AcDbPlotSettings
  1

  2
none_device
  4

  6

 40
0.0
 41
0.0
 42
0.0
 43
0.0
 44
0.0
 45
0.0
 46
0.0
 47
0.0
 48
0.0
 49
0.0
140
0.0
141
0.0
142
1.0
143
1.0
 70
   688
 72
     1
 73
     0
 74
     5
  7

 75
    16
147
1.0
148
0.0
149
0.0
100
AcDbLayout
  1
Layout1
 70
     1
 71
     1
 10
0.0
 20
0.0
 11
420.0
 21
297.0
 12
0.0
 22
0.0
 32
0.0
 14
1.0000000000E+20
 24
1.0000000000E+20
 34
1.0000000000E+20
 15
-1.0000000000E+20
 25
-1.0000000000E+20
 35
-1.0000000000E+20
146
0.0
 13
0.0
 23
0.0
 33
0.0
 16
1.0
 26
0.0
 36
0.0
 17
0.0
 27
1.0
 37
0.0
 76
     0
330
1B
  0
LAYOUT
  5
26
102
{ACAD_REACTORS
330
1A
102
}
330
1A
100
AcDbPlotSettings
  1

  2
none_device
  4

  6

 40
0.0
 41
0.0
 42
0.0
 43
0.0
 44
0.0
 45
0.0
 46
0.0
 47
0.0
 48
0.0
 49
0.0
140
0.0
141
0.0
142
1.0
143
1.0
 70
   688
 72
     1
 73
     0
 74
     5
  7

 75
    16
147
1.0
148
0.0
149
0.0
100
AcDbLayout
  1
Layout2
 70
     1
 71
     2
 10
0.0
 20
0.0
 11
0.0
 21
0.0
 12
0.0
 22
0.0
 32
0.0
 14
0.0
 24
0.0
 34
0.0
 15
0.0
 25
0.0
 35
0.0
146
0.0
 13
0.0
 23
0.0
 33
0.0
 16
1.0
 26
0.0
 36
0.0
 17
0.0
 27
1.0
 37
0.0
 76
     0
330
23
  0
LAYOUT
  5
22
102
{ACAD_REACTORS
330
1A
102
}
330
1A
100
AcDbPlotSettings
  1

  2
none_device
  4
ANSI_A_(11.00_x_8.50_Inches)
  6

 40
6.35
 41
19.05
 42
6.35000508
 43
19.05000254
 44
279.4
 45
215.9
 46
133.34999746
 47
88.89999873
 48
0.0
 49
0.0
140
0.0
141
0.0
142
0.09
143
1.0
 70
  1696
 72
     0
 73
     0
 74
     0
  7

 75
     0
147
0.0179189148
148
-1300.4909072572
149
0.0
100
AcDbLayout
  1
Model
 70
     1
 71
     0
 10
0.0
 20
0.0
 11
420.0
 21
297.0
 12
0.0
 22
0.0
 32
0.0
 14
-60.5
 24
-14.4984944243
 34
0.0
 15
60.5
 25
14.4984944243
 35
0.0
146
0.0
 13
0.0
 23
0.0
 33
0.0
 16
1.0
 26
0.0
 36
0.0
 17
0.0
 27
1.0
 37
0.0
 76
     0
330
1F
331
29
  0
MLINESTYLE
  5
18
102
{ACAD_REACTORS
330
17
102
}
330
17
100
AcDbMlineStyle
  2
Standard
 70
     0
  3

 62
   256
 51
90.0
 52
90.0
 71
     2
 49
0.5
 62
   256
  6
BYLAYER
 49
-0.5
 62
   256
  6
BYLAYER
  0
ACDBPLACEHOLDER
  5
F
102
{ACAD_REACTORS
330
E
102
}
330
E
  0
SCALE
  5
48
102
{ACAD_REACTORS
330
47
102
}
330
47
100
AcDbScale
 70
     0
300
1:1
140
1.0
141
1.0
290
     1
  0
SCALE
  5
49
102
{ACAD_REACTORS
330
47
102
}
330
47
100
AcDbScale
 70
     0
300
1:2
140
1.0
141
2.0
290
     0
  0
SCALE
  5
4A
102
{ACAD_REACTORS
330
47
102
}
330
47
100
AcDbScale
 70
     0
300
1:4
140
1.0
141
4.0
290
     0
  0
SCALE
  5
4B
102
{ACAD_REACTORS
330
47
102
}
330
47
100
AcDbScale
 70
     0
300
1:5
140
1.0
141
5.0
290
     0
  0
SCALE
  5
4C
102
{ACAD_REACTORS
330
47
102
}
330
47
100
AcDbScale
 70
     0
300
1:8
140
1.0
141
8.0
290
     0
  0
SCALE
  5
4D
102
{ACAD_REACTORS
330
47
102
}
330
47
100
AcDbScale
 70
     0
300
1:10
140
1.0
141
10.0
290
     0
  0
SCALE
  5
4E
102
{ACAD_REACTORS
330
47
102
}
330
47
100
AcDbScale
 70
     0
300
1:16
140
1.0
141
16.0
290
     0
  0
SCALE
  5
4F
102
{ACAD_REACTORS
330
47
102
}
330
47
100
AcDbScale
 70
     0
300
1:20
140
1.0
141
20.0
290
     0
  0
SCALE
  5
50
102
{ACAD_REACTORS
330
47
102
}
330
47
100
AcDbScale
 70
     0
300
1:30
140
1.0
141
30.0
290
     0
  0
SCALE
  5
51
102
{ACAD_REACTORS
330
47
102
}
330
47
100
AcDbScale
 70
     0
300
1:40
140
1.0
141
40.0
290
     0
  0
SCALE
  5
52
102
{ACAD_REACTORS
330
47
102
}
330
47
100
AcDbScale
 70
     0
300
1:50
140
1.0
141
50.0
290
     0
  0
SCALE
  5
53
102
{ACAD_REACTORS
330
47
102
}
330
47
100
AcDbScale
 70
     0
300
1:100
140
1.0
141
100.0
290
     0
  0
SCALE
  5
54
102
{ACAD_REACTORS
330
47
102
}
330
47
100
AcDbScale
 70
     0
300
2:1
140
2.0
141
1.0
290
     0
  0
SCALE
  5
55
102
{ACAD_REACTORS
330
47
102
}
330
47
100
AcDbScale
 70
     0
300
4:1
140
4.0
141
1.0
290
     0
  0
SCALE
  5
56
102
{ACAD_REACTORS
330
47
102
}
330
47
100
AcDbScale
 70
     0
300
8:1
140
8.0
141
1.0
290
     0
  0
SCALE
  5
57
102
{ACAD_REACTORS
330
47
102
}
330
47
100
AcDbScale
 70
     0
300
10:1
140
10.0
141
1.0
290
     0
  0
SCALE
  5
58
102
{ACAD_REACTORS
330
47
102
}
330
47
100
AcDbScale
 70
     0
300
100:1
140
100.0
141
1.0
290
     0
  0
SCALE
  5
59
102
{ACAD_REACTORS
330
47
102
}
330
47
100
AcDbScale
 70
     0
300
1/128" = 1'-0"
140
0.0078125
141
12.0
290
     0
  0
SCALE
  5
5A
102
{ACAD_REACTORS
330
47
102
}
330
47
100
AcDbScale
 70
     0
300
1/64" = 1'-0"
140
0.015625
141
12.0
290
     0
  0
SCALE
  5
5B
102
{ACAD_REACTORS
330
47
102
}
330
47
100
AcDbScale
 70
     0
300
1/32" = 1'-0"
140
0.03125
141
12.0
290
     0
  0
SCALE
  5
5C
102
{ACAD_REACTORS
330
47
102
}
330
47
100
AcDbScale
 70
     0
300
1/16" = 1'-0"
140
0.0625
141
12.0
290
     0
  0
SCALE
  5
5D
102
{ACAD_REACTORS
330
47
102
}
330
47
100
AcDbScale
 70
     0
300
3/32" = 1'-0"
140
0.09375
141
12.0
290
     0
  0
SCALE
  5
5E
102
{ACAD_REACTORS
330
47
102
}
330
47
100
AcDbScale
 70
     0
300
1/8" = 1'-0"
140
0.125
141
12.0
290
     0
  0
SCALE
  5
5F
102
{ACAD_REACTORS
330
47
102
}
330
47
100
AcDbScale
 70
     0
300
3/16" = 1'-0"
140
0.1875
141
12.0
290
     0
  0
SCALE
  5
60
102
{ACAD_REACTORS
330
47
102
}
330
47
100
AcDbScale
 70
     0
300
1/4" = 1'-0"
140
0.25
141
12.0
290
     0
  0
SCALE
  5
61
102
{ACAD_REACTORS
330
47
102
}
330
47
100
AcDbScale
 70
     0
300
3/8" = 1'-0"
140
0.375
141
12.0
290
     0
  0
SCALE
  5
62
102
{ACAD_REACTORS
330
47
102
}
330
47
100
AcDbScale
 70
     0
300
1/2" = 1'-0"
140
0.5
141
12.0
290
     0
  0
SCALE
  5
63
102
{ACAD_REACTORS
330
47
102
}
330
47
100
AcDbScale
 70
     0
300
3/4" = 1'-0"
140
0.75
141
12.0
290
     0
  0
SCALE
  5
64
102
{ACAD_REACTORS
330
47
102
}
330
47
100
AcDbScale
 70
     0
300
1" = 1'-0"
140
1.0
141
12.0
290
     0
  0
SCALE
  5
65
102
{ACAD_REACTORS
330
47
102
}
330
47
100
AcDbScale
 70
     0
300
1-1/2" = 1'-0"
140
1.5
141
12.0
290
     0
  0
SCALE
  5
66
102
{ACAD_REACTORS
330
47
102
}
330
47
100
AcDbScale
 70
     0
300
3" = 1'-0"
140
3.0
141
12.0
290
     0
  0
SCALE
  5
67
102
{ACAD_REACTORS
330
47
102
}
330
47
100
AcDbScale
 70
     0
300
6" = 1'-0"
140
6.0
141
12.0
290
     0
  0
SCALE
  5
68
102
{ACAD_REACTORS
330
47
102
}
330
47
100
AcDbScale
 70
     0
300
1'-0" = 1'-0"
140
12.0
141
12.0
290
     0
  0
ENDSEC
  0
EOF
